<?xml version="1.0" encoding="utf-8"?>
<!-- Generator: Adobe Illustrator 26.3.1, SVG Export Plug-In . SVG Version: 6.00 Build 0)  -->
<svg version="1.1" baseProfile="tiny" id="Layer_1" xmlns="http://www.w3.org/2000/svg" xmlns:xlink="http://www.w3.org/1999/xlink"
	 x="0px" y="0px" viewBox="0 0 142.98 151.15" overflow="visible" xml:space="preserve">
<path d="M48.07,138.57"/>
<g>
	<path d="M26.42,55.57c0.09-5.27,3.97-9.57,9-10.37l0.91-6.33c-9.89-0.2-12.68,5.87-13.4,9.99c-3.77,21.71-12.77,86.45-12.77,86.45
		l12.23,0.21L32.5,65.4C28.85,63.65,26.34,59.89,26.42,55.57z"/>
	<path d="M28.41,17.75l-0.82,5.69l5.67,0.07l0.44-1.87l9.07,0.16L39.4,45.19c4.9,1.05,8.53,5.45,8.44,10.65
		c-0.1,5.91-4.98,10.61-10.89,10.51c-0.2,0-0.4-0.03-0.6-0.04l-3.31,22.91c18.25,0.56,18.09-2.29,18.95-7.96
		c1.73-11.41,9.13-62.93,9.13-62.93L28.41,17.75z"/>
</g>
<line x1="56.46" y1="15.63" x2="57.29" y2="15.74"/>
<line x1="-58.29" y1="462.77" x2="-62.08" y2="462.22"/>
<line x1="98.75" y1="484.34" x2="94.96" y2="483.8"/>
<g>
	<path d="M109.48,84.26h0.98c0.83,0,1.34,0.51,1.34,1.38c0,0.94-0.5,1.51-1.37,1.51h-0.95V84.26z M109.99,86.75h0.43
		c0.56,0,0.85-0.41,0.85-1.09c0-0.6-0.29-0.98-0.85-0.98h-0.43V86.75z"/>
	<path d="M114.01,86.52c0,0.3,0,0.52,0.01,0.63h-0.48c-0.01-0.06-0.02-0.17-0.02-0.29c-0.12,0.23-0.32,0.33-0.61,0.33
		c-0.4,0-0.67-0.23-0.67-0.75v-1.45h0.49v1.36c0,0.25,0.08,0.43,0.35,0.43c0.26,0,0.43-0.17,0.43-0.58v-1.21h0.5V86.52z"/>
	<path d="M114.35,84.99h0.32v-0.6h0.49v0.6h0.4v0.39h-0.4v1.19c0,0.16,0.04,0.23,0.22,0.23c0.05,0,0.09,0,0.14-0.01v0.35
		c-0.1,0.03-0.25,0.04-0.33,0.04c-0.38,0-0.53-0.15-0.53-0.54v-1.26h-0.32V84.99z"/>
	<path d="M117.63,86.42c-0.07,0.43-0.34,0.77-0.92,0.77c-0.64,0-0.95-0.41-0.95-1.12c0-0.66,0.36-1.12,0.98-1.12
		c0.66,0,0.87,0.47,0.89,0.79h-0.5c-0.03-0.21-0.13-0.4-0.4-0.4c-0.33,0-0.47,0.3-0.47,0.72c0,0.52,0.17,0.75,0.46,0.75
		c0.26,0,0.36-0.17,0.42-0.39H117.63z"/>
	<path d="M118.52,84.09v1.18c0.1-0.19,0.3-0.32,0.62-0.32c0.36,0,0.68,0.2,0.68,0.78v1.42h-0.49V85.8c0-0.27-0.09-0.44-0.38-0.44
		c-0.3,0-0.43,0.2-0.43,0.58v1.22h-0.5v-3.06H118.52z"/>
	<path d="M122.58,86.26c-0.08,0.48-0.4,0.93-1.12,0.93c-0.89,0-1.22-0.66-1.22-1.5c0-0.8,0.4-1.48,1.24-1.48
		c0.74,0,1.05,0.47,1.08,0.93h-0.5c-0.06-0.27-0.19-0.51-0.6-0.51c-0.51,0-0.7,0.51-0.7,1.06c0,0.57,0.16,1.09,0.7,1.09
		c0.4,0,0.54-0.26,0.61-0.52H122.58z"/>
	<path d="M124.91,86.04c0,0.63-0.29,1.15-1.01,1.15c-0.73,0-0.99-0.55-0.99-1.14c0-0.55,0.31-1.1,1.02-1.1
		C124.6,84.95,124.91,85.44,124.91,86.04z M123.42,86.04c0,0.47,0.17,0.76,0.51,0.76c0.33,0,0.49-0.28,0.49-0.76
		c0-0.44-0.16-0.7-0.5-0.7C123.59,85.34,123.42,85.62,123.42,86.04z"/>
	<path d="M127.16,84.09v2.47c0,0.24,0,0.46,0.01,0.59h-0.48c-0.01-0.06-0.02-0.19-0.02-0.28c-0.11,0.21-0.27,0.32-0.62,0.32
		c-0.55,0-0.84-0.46-0.84-1.12c0-0.64,0.34-1.13,0.92-1.13c0.33,0,0.48,0.12,0.53,0.22v-1.08H127.16z M125.72,86.06
		c0,0.45,0.17,0.73,0.49,0.73c0.4,0,0.48-0.29,0.48-0.74c0-0.51-0.12-0.69-0.46-0.69C125.92,85.36,125.72,85.6,125.72,86.06z"/>
	<path d="M128.11,86.18c0,0.32,0.13,0.62,0.47,0.62c0.29,0,0.38-0.19,0.41-0.29h0.49c-0.09,0.33-0.33,0.68-0.92,0.68
		c-0.69,0-0.96-0.49-0.96-1.12c0-0.53,0.27-1.12,0.98-1.12c0.71,0,0.92,0.52,0.92,1.06c0,0.02,0,0.15-0.01,0.17H128.11z
		 M129.02,85.84c-0.01-0.29-0.12-0.52-0.45-0.52c-0.36,0-0.45,0.3-0.46,0.52H129.02z"/>
	<path d="M130.82,85.62h0.25v0.25h-0.25V85.62z M130.82,86.07h0.25v1.08h-0.25V86.07z"/>
	<path d="M131.35,86.41c0-0.22,0-0.29,0-0.34h0.24c0,0.02,0.01,0.1,0.01,0.15c0.04-0.09,0.15-0.17,0.31-0.17
		c0.22,0,0.34,0.13,0.34,0.4v0.71H132v-0.66c0-0.13-0.04-0.24-0.18-0.24c-0.15,0-0.22,0.1-0.22,0.3v0.6h-0.25V86.41z"/>
	<path d="M133.4,86.79c-0.04,0.22-0.17,0.39-0.46,0.39c-0.32,0-0.48-0.2-0.48-0.56c0-0.33,0.18-0.56,0.49-0.56
		c0.33,0,0.43,0.24,0.44,0.4h-0.25c-0.01-0.11-0.07-0.2-0.2-0.2c-0.17,0-0.23,0.15-0.23,0.36c0,0.26,0.08,0.38,0.23,0.38
		c0.13,0,0.18-0.08,0.21-0.19H133.4z"/>
	<path d="M133.57,87.15v-0.32h0.24v0.32H133.57z"/>
</g>
<g>
	<path d="M59.04,82.49V75h1.33l0.29,0.88c0.21-0.68,0.85-1,1.66-1c1.59,0,2.35,1.23,2.35,2.86c0,1.65-0.78,2.95-2.45,2.95
		c-0.69,0-1.28-0.22-1.53-0.88v2.68H59.04z M62.91,77.79c0-0.96-0.28-1.66-1.11-1.66c-0.84,0-1.12,0.7-1.12,1.66
		s0.28,1.66,1.11,1.66C62.63,79.45,62.91,78.75,62.91,77.79z"/>
	<path d="M66,75.17c0,0,0.75-0.25,1.95-0.25c0.99,0,1.74,0.17,2.12,0.7c0.31,0.43,0.31,0.97,0.31,1.53v1.63c0,0.24,0,0.66,0.48,0.66
		c0.13,0,0.25-0.03,0.25-0.03v1.14c0,0-0.41,0.09-0.86,0.09c-0.77,0-1.22-0.26-1.32-0.99c-0.2,0.67-0.86,1-1.66,1
		c-1.12,0-1.85-0.65-1.85-1.69c0-1.28,1.12-1.85,2.8-1.85c0.32,0,0.52,0.02,0.52,0.02c0-0.35,0-0.53-0.14-0.73
		c-0.14-0.2-0.4-0.3-0.88-0.3c-0.84,0-1.64,0.3-1.64,0.3H66V75.17z M67.8,79.45c0.36,0,0.66-0.17,0.8-0.44s0.14-0.6,0.14-0.78v-0.15
		h-0.28c-0.45,0-1.35,0-1.35,0.74C67.11,79.19,67.34,79.45,67.8,79.45z"/>
	<path d="M76.08,73.05c0.72,0,1.64,0,2.44,0.44c0.96,0.53,1.56,1.59,1.56,3.32c0,1.72-0.6,2.76-1.64,3.32
		c-0.8,0.44-1.64,0.44-2.36,0.44h-1.72v-7.52H76.08z M74.96,80.09h1.16c0.6,0,1.36,0,2.04-0.4c0.96-0.56,1.28-1.6,1.28-2.88
		s-0.32-2.32-1.28-2.88c-0.68-0.4-1.44-0.4-2.04-0.4h-1.16V80.09z"/>
	<path d="M85.16,80.41c0,0-0.59,0.24-1.43,0.24c-0.86,0-1.44-0.25-1.81-0.66c-0.42-0.46-0.64-1.2-0.64-2.1c0-1.78,0.84-2.8,2.2-2.8
		c0.76,0,1.32,0.32,1.64,0.92c0.32,0.6,0.32,1.4,0.32,1.96h-3.52c0,1.42,0.6,2.2,1.82,2.2c0.72,0,1.34-0.28,1.34-0.28h0.08V80.41z
		 M84.8,77.51c0-1.25-0.44-1.94-1.35-1.94c-0.95,0-1.45,0.74-1.53,1.94H84.8z"/>
	<path d="M87.12,75.21l1.68,4.6l1.72-4.6h0.6l-2.08,5.36h-0.56l-2.08-5.36H87.12z"/>
	<path d="M95.96,80.41c0,0-0.59,0.24-1.43,0.24c-0.86,0-1.44-0.25-1.81-0.66c-0.42-0.46-0.64-1.2-0.64-2.1c0-1.78,0.84-2.8,2.2-2.8
		c0.76,0,1.32,0.32,1.64,0.92c0.32,0.6,0.32,1.4,0.32,1.96h-3.52c0,1.42,0.6,2.2,1.82,2.2c0.72,0,1.34-0.28,1.34-0.28h0.08V80.41z
		 M95.6,77.51c0-1.25-0.44-1.94-1.35-1.94c-0.95,0-1.45,0.74-1.53,1.94H95.6z"/>
	<path d="M98.4,72.77v7.8h-0.6v-7.8H98.4z"/>
	<path d="M102.28,80.69c-1.46,0-2.32-1.02-2.32-2.78c0-1.76,0.86-2.82,2.36-2.82c1.46,0,2.32,1.02,2.32,2.78
		C104.64,79.63,103.78,80.69,102.28,80.69z M104,77.89c0-1.54-0.58-2.32-1.7-2.32s-1.7,0.78-1.7,2.32c0,1.54,0.58,2.32,1.7,2.32
		S104,79.43,104,77.89z"/>
	<path d="M106.2,82.61v-7.4h0.44l0.16,1c0.16-0.64,0.76-1.12,1.69-1.12c1.35,0,2.23,1.01,2.23,2.79c0,1.78-0.88,2.81-2.28,2.81
		c-0.88,0-1.4-0.4-1.64-1.04v2.96H106.2z M110.08,77.89c0-1.32-0.47-2.32-1.66-2.32c-1.17,0-1.66,0.96-1.66,2.32
		c0,1.36,0.49,2.32,1.66,2.32C109.61,80.21,110.08,79.21,110.08,77.89z"/>
	<path d="M112.72,75.21l0.16,0.92c0.12-0.65,0.58-1.04,1.51-1.04c0.95,0,1.41,0.41,1.65,1.12c0.2-0.72,0.72-1.12,1.63-1.12
		c0.81,0,1.21,0.32,1.45,0.68c0.27,0.41,0.32,0.83,0.32,1.64v3.16h-0.6v-3.16c0-0.64-0.03-0.97-0.24-1.28
		c-0.19-0.29-0.48-0.52-1.07-0.52c-1.25,0-1.37,1.03-1.37,1.6v3.36h-0.6v-3.16c0-0.64-0.03-0.97-0.24-1.28
		c-0.19-0.29-0.48-0.52-1.07-0.52c-1.25,0-1.37,1.03-1.37,1.6v3.36h-0.6v-5.36H112.72z"/>
	<path d="M124.8,80.41c0,0-0.59,0.24-1.43,0.24c-0.86,0-1.44-0.25-1.81-0.66c-0.42-0.46-0.64-1.2-0.64-2.1c0-1.78,0.84-2.8,2.2-2.8
		c0.76,0,1.32,0.32,1.64,0.92c0.32,0.6,0.32,1.4,0.32,1.96h-3.52c0,1.42,0.6,2.2,1.82,2.2c0.72,0,1.34-0.28,1.34-0.28h0.08V80.41z
		 M124.44,77.51c0-1.25-0.44-1.94-1.35-1.94c-0.95,0-1.45,0.74-1.53,1.94H124.44z"/>
	<path d="M127.08,75.21l0.16,0.92c0.12-0.64,0.6-1.04,1.55-1.04c0.84,0,1.28,0.31,1.53,0.68c0.3,0.45,0.32,0.94,0.32,1.64v3.16h-0.6
		v-3.16c0-0.44,0.01-0.92-0.24-1.28c-0.19-0.28-0.53-0.52-1.15-0.52c-1.29,0-1.41,1.03-1.41,1.6v3.36h-0.6v-5.36H127.08z"/>
	<path d="M135.12,80.53c0,0-0.36,0.12-0.84,0.12c-0.58,0-0.98-0.18-1.2-0.52c-0.2-0.32-0.2-0.64-0.2-1.36v-3h-1.04v-0.48h1.04v-1.6
		l0.6-0.2v1.8h1.64v0.48h-1.64v3c0,0.52,0,0.8,0.12,1.04c0.12,0.24,0.36,0.36,0.69,0.36c0.39,0,0.75-0.16,0.75-0.16h0.08V80.53z"/>
</g>
</svg>
