<?xml version="1.0" encoding="utf-8"?>
<!-- Generator: Adobe Illustrator 26.3.1, SVG Export Plug-In . SVG Version: 6.00 Build 0)  -->
<svg version="1.1" baseProfile="tiny" id="Layer_1" xmlns="http://www.w3.org/2000/svg" xmlns:xlink="http://www.w3.org/1999/xlink"
	 x="0px" y="0px" viewBox="0 0 612 792" overflow="visible" xml:space="preserve">
<path d="M180.02,701"/>
<g>
	<path d="M247.33,315.9c0.42-24.11,18.2-43.81,41.21-47.49l4.18-28.98c-45.28-0.94-58.08,26.89-61.36,45.74
		c-17.27,99.43-58.47,395.9-58.47,395.9l56.01,0.97l46.3-321.13C258.45,352.9,246.99,335.69,247.33,315.9z"/>
	<path d="M251.88,142.74l-3.76,26.04l25.97,0.31l2.02-8.54l41.53,0.73L302.19,268.4c22.43,4.82,39.07,24.95,38.65,48.75
		c-0.48,27.06-22.8,48.61-49.86,48.13c-0.92-0.02-1.83-0.12-2.74-0.19l-17.84,123.64c83.57,2.58,85.53-29.2,89.47-55.18
		c7.93-52.25,41.79-288.17,41.79-288.17L251.88,142.74z"/>
</g>
<line x1="244.33" y1="142.74" x2="248.12" y2="143.28"/>
<line x1="161.56" y1="749.13" x2="157.77" y2="748.59"/>
<line x1="401.37" y1="164.32" x2="405.16" y2="164.86"/>
<line x1="318.6" y1="770.71" x2="314.81" y2="770.16"/>
</svg>
